<svg width="27" height="20" viewBox="0 0 27 20" fill="none" xmlns="http://www.w3.org/2000/svg">
<path d="M22.2542 1.68915C25.2186 6.04768 26.6826 10.964 26.1353 16.6238C26.133 16.6477 26.1206 16.6697 26.1009 16.6841C23.856 18.3325 21.681 19.3329 19.5365 19.9964C19.5198 20.0014 19.5019 20.0011 19.4854 19.9956C19.4689 19.99 19.4545 19.9793 19.4443 19.9652C18.9489 19.2758 18.4987 18.5491 18.1043 17.7859C18.0817 17.741 18.1024 17.6868 18.149 17.6691C18.8639 17.3997 19.5437 17.0769 20.1976 16.6946C20.2491 16.6645 20.2524 16.5906 20.2049 16.5552C20.0661 16.4522 19.9286 16.3439 19.797 16.2356C19.7724 16.2156 19.7393 16.2117 19.7114 16.2251C15.4661 18.1855 10.8155 18.1855 6.51998 16.2251C6.49209 16.2127 6.45895 16.2169 6.435 16.2366C6.30376 16.3449 6.16596 16.4522 6.02848 16.5552C5.9809 16.5906 5.98484 16.6645 6.03668 16.6946C6.69059 17.0697 7.37042 17.3997 8.08438 17.6704C8.13064 17.6881 8.15262 17.741 8.12966 17.7859C7.74381 18.5501 7.29365 19.2768 6.78902 19.9662C6.76704 19.9941 6.73095 20.0069 6.69683 19.9964C4.56251 19.3329 2.38751 18.3325 0.142628 16.6841C0.123926 16.6697 0.110473 16.6467 0.108505 16.6228C-0.348872 11.7272 0.583271 6.77016 3.98603 1.68816C3.99424 1.67471 4.0067 1.66421 4.02114 1.65798C5.69545 0.88956 7.4892 0.324237 9.36398 0.00138313C9.3981 -0.00386653 9.43223 0.0118824 9.44994 0.042068C9.89044 0.821977 10.7468 1.30265 11.64 1.23615C12.6266 1.1627 13.6194 1.16339 14.616 1.23822C15.5086 1.30524 16.3528 0.822245 16.7916 0.042068C16.7998 0.0270933 16.8125 0.0150963 16.828 0.00778993C16.8434 0.000483532 16.8608 -0.00175878 16.8776 0.00138313C18.7533 0.325221 20.5471 0.890544 22.2201 1.65798C22.2348 1.66421 22.247 1.67471 22.2542 1.68915ZM11.1302 10.9975C11.1508 9.55019 10.0957 8.35261 8.7711 8.35261C7.45737 8.35261 6.41236 9.53969 6.41236 10.9975C6.41236 12.4549 7.47804 13.642 8.7711 13.642C10.0852 13.642 11.1302 12.4549 11.1302 10.9975ZM19.8518 10.9975C19.8725 9.55019 18.8173 8.35261 17.4931 8.35261C16.179 8.35261 15.134 9.53969 15.134 10.9975C15.134 12.4549 16.1997 13.642 17.4931 13.642C18.8173 13.642 19.8518 12.4549 19.8518 10.9975Z" fill="white"/>
</svg>
